<svg xmlns="http://www.w3.org/2000/svg" width="63.092" height="63.092" viewBox="0 0 63.092 63.092">
	<path id="Icon_ionic-ios-arrow-dropdown-circle" data-name="Icon ionic-ios-arrow-dropdown-circle" d="M3.375,34.921A31.546,31.546,0,1,0,34.921,3.375,31.541,31.541,0,0,0,3.375,34.921Zm43.846-6.582a2.938,2.938,0,0,1,4.14,0,2.891,2.891,0,0,1,.849,2.063,2.942,2.942,0,0,1-.864,2.078l-14.3,14.256a2.924,2.924,0,0,1-4.034-.091L18.5,32.176a2.928,2.928,0,1,1,4.14-4.14l12.3,12.421Z" transform="translate(-3.375 -3.375)" fill="#3fa9f5" />
</svg>
