<svg id="Grupo_280" data-name="Grupo 280" xmlns="http://www.w3.org/2000/svg" width="146.672" height="91.978" viewBox="0 0 146.672 91.978">
	<path id="Caminho_230" data-name="Caminho 230" d="M218.818,320.677l-.264,4.489H166.936c-7.128,0-10.166.119-10.166.119l1.187-2.006c2.64-4.37,3.3-5.312,3.3-40.736,0-34.36-.528-34.834-3.3-39.556l-1.187-2.006s2.9.119,10.032.119h50.431s-.132,2.6-.132,8.382c0,6.14.264,9.092.264,9.327-.132-.119-.923-1.18-4.62-3.187-3.17-1.652-8.315-2.6-14.521-2.6h-14v23.971h10.826c6.205,0,11.353-.59,14.523-2.244a19.586,19.586,0,0,0,4.752-3.07c0,.119-.4,3.425-.4,11.453,0,7.44.4,10.981.4,11.217-.132-.119-1.057-1.181-4.752-3.187-3.167-1.652-8.315-2.244-14.523-2.244H184.229v24.324H196.9c16.369,0,18.482-3.425,23.368-9.8C220.271,303.439,219.609,308.163,218.818,320.677Z" transform="translate(-156.77 -240.98)" fill="#3fa9f5" />
	<g id="Grupo_279" data-name="Grupo 279" transform="translate(74.986 4.363)">
		<path id="Caminho_231" data-name="Caminho 231" d="M637.044,361.153h-4.063a1.167,1.167,0,0,0-1.1.791l-1.09,3.247-3.3-9.771a1.167,1.167,0,0,0-2.21,0l-1.933,5.732h-3.224a1.165,1.165,0,1,0,0,2.331h4.063a1.163,1.163,0,0,0,1.1-.791l1.1-3.247,3.3,9.771a1.164,1.164,0,0,0,2.205,0l1.933-5.732h3.224a1.165,1.165,0,1,0,0-2.331Z" transform="translate(-594.016 -334.421)" fill="#3fa9f5" />
		<path id="Caminho_232" data-name="Caminho 232" d="M539.1,261.16c-26.008,0-35.512,13.461-35.512,29.521,0,12.988,5.941,24.806,23.632,24.914,12.432.076,18.681-1.76,21.816-3.552a1.822,1.822,0,0,1,2.713,1.795c-2.307,19.247-11.66,23.6-26.905,23.6-12.938,0-18.086-4.134-18.086-4.134s1.849,15.468,27.593,15.468c10.958,0,40.924-2.244,40.924-45.934C575.274,281,569.333,261.16,539.1,261.16Zm11.079,31.835a42.609,42.609,0,0,1-11.626,8.644l-.748.381-.748-.381a42.589,42.589,0,0,1-11.621-8.644,9.428,9.428,0,0,1,0-12.895,8.431,8.431,0,0,1,12.32,0c.015.017.039.041.052.058l.056-.058a8.431,8.431,0,0,1,12.32,0h0a9.422,9.422,0,0,1,0,12.895Z" transform="translate(-503.59 -261.16)" fill="#3fa9f5" />
	</g>
</svg>
