<svg xmlns="http://www.w3.org/2000/svg" width="146.672" height="115.225" viewBox="0 0 146.672 115.225">
	<g id="logo-e9" transform="translate(-156.77 -240.98)">
		<g id="Grupo_280" data-name="Grupo 280" transform="translate(156.77 240.98)">
			<path id="Caminho_230" data-name="Caminho 230" d="M218.818,320.677l-.264,4.489H166.936c-7.128,0-10.166.119-10.166.119l1.187-2.006c2.64-4.37,3.3-5.312,3.3-40.736,0-34.36-.528-34.834-3.3-39.556l-1.187-2.006s2.9.119,10.032.119h50.431s-.132,2.6-.132,8.382c0,6.14.264,9.092.264,9.327-.132-.119-.923-1.18-4.62-3.187-3.17-1.652-8.315-2.6-14.521-2.6h-14v23.971h10.826c6.205,0,11.353-.59,14.523-2.244a19.586,19.586,0,0,0,4.752-3.07c0,.119-.4,3.425-.4,11.453,0,7.44.4,10.981.4,11.217-.132-.119-1.057-1.181-4.752-3.187-3.167-1.652-8.315-2.244-14.523-2.244H184.229v24.324H196.9c16.369,0,18.482-3.425,23.368-9.8C220.271,303.439,219.609,308.163,218.818,320.677Z" transform="translate(-156.77 -240.98)" fill="#3fa9f5" />
			<g id="Grupo_279" data-name="Grupo 279" transform="translate(74.986 4.363)">
				<path id="Caminho_231" data-name="Caminho 231" d="M637.044,361.153h-4.063a1.167,1.167,0,0,0-1.1.791l-1.09,3.247-3.3-9.771a1.167,1.167,0,0,0-2.21,0l-1.933,5.732h-3.224a1.165,1.165,0,1,0,0,2.331h4.063a1.163,1.163,0,0,0,1.1-.791l1.1-3.247,3.3,9.771a1.164,1.164,0,0,0,2.205,0l1.933-5.732h3.224a1.165,1.165,0,1,0,0-2.331Z" transform="translate(-594.016 -334.421)" fill="#3fa9f5" />
				<path id="Caminho_232" data-name="Caminho 232" d="M539.1,261.16c-26.008,0-35.512,13.461-35.512,29.521,0,12.988,5.941,24.806,23.632,24.914,12.432.076,18.681-1.76,21.816-3.552a1.822,1.822,0,0,1,2.713,1.795c-2.307,19.247-11.66,23.6-26.905,23.6-12.938,0-18.086-4.134-18.086-4.134s1.849,15.468,27.593,15.468c10.958,0,40.924-2.244,40.924-45.934C575.274,281,569.333,261.16,539.1,261.16Zm11.079,31.835a42.609,42.609,0,0,1-11.626,8.644l-.748.381-.748-.381a42.589,42.589,0,0,1-11.621-8.644,9.428,9.428,0,0,1,0-12.895,8.431,8.431,0,0,1,12.32,0c.015.017.039.041.052.058l.056-.058a8.431,8.431,0,0,1,12.32,0h0a9.422,9.422,0,0,1,0,12.895Z" transform="translate(-503.59 -261.16)" fill="#3fa9f5" />
			</g>
		</g>
		<g id="Grupo_281" data-name="Grupo 281" transform="translate(158.182 339.742)">
			<path id="Caminho_233" data-name="Caminho 233" d="M167.953,721.522a3.014,3.014,0,0,1-2.694-1.092,4.512,4.512,0,0,1-.53-2.761c0-4.923.069-6.614.069-6.614h-1.5a7.861,7.861,0,0,0,1.656-1.792,14.206,14.206,0,0,0,1.336-2.143h1.038v2.575H168.8a5.647,5.647,0,0,0,2.257-.227s-.024.288-.024.906.024.886.024.886a6.024,6.024,0,0,0-2.257-.205H167.33v6.7a3.025,3.025,0,0,0,.277,1.647,1.654,1.654,0,0,0,1.613.742,2.787,2.787,0,0,0,1.911-.618C171.133,719.872,170.857,721.522,167.953,721.522Z" transform="translate(-163.3 -705.098)" fill="#707070" />
			<path id="Caminho_234" data-name="Caminho 234" d="M211.241,724.5a16.113,16.113,0,0,1-2.6-.164c0,1.587.6,3.831,3.756,3.831,3.018,0,3.846-1.278,3.916-1.4,0,1.546-1.2,2.988-4.562,2.988-4.376,0-5.827-2.556-5.827-5.872,0-4.8,2.88-6.283,5.712-6.283,2.995,0,4.86,1.2,4.86,3.358C216.493,722.3,216.032,724.5,211.241,724.5Zm.322-5.583c-1.818,0-2.971,1.07-2.971,4.121a14.459,14.459,0,0,0,2.326.123c2.279,0,2.9-1.031,2.9-2.1C213.82,720.443,213.751,718.919,211.563,718.919Z" transform="translate(-196.705 -713.313)" fill="#707070" />
			<path id="Caminho_235" data-name="Caminho 235" d="M267.74,713.964c-1.475,0-2.05.041-2.05.041l.208-.35c.439-.72.577-1.133.577-5.254v-4.614c0-3.749-.138-4.367-.577-5.131l-.208-.35,3.386-.536s-.069,2.225-.069,4.266V708.4c0,3.978.115,4.493.575,5.254l.208.35S269.214,713.964,267.74,713.964Z" transform="translate(-243.552 -697.77)" fill="#707070" />
			<path id="Caminho_236" data-name="Caminho 236" d="M301.481,724.5a16.112,16.112,0,0,1-2.6-.164c0,1.587.6,3.831,3.755,3.831,3.018,0,3.846-1.278,3.916-1.4,0,1.546-1.2,2.988-4.562,2.988-4.376,0-5.827-2.556-5.827-5.872,0-4.8,2.88-6.283,5.712-6.283,2.995,0,4.86,1.2,4.86,3.358C306.73,722.3,306.27,724.5,301.481,724.5Zm.32-5.583c-1.818,0-2.971,1.07-2.971,4.121a14.458,14.458,0,0,0,2.326.123c2.279,0,2.9-1.031,2.9-2.1C304.06,720.443,303.991,718.919,301.8,718.919Z" transform="translate(-267.434 -713.313)" fill="#707070" />
			<path id="Caminho_237" data-name="Caminho 237" d="M376.139,729.479s-.577-.041-2.05-.041-2.05.041-2.05.041l.208-.35c.37-.6.6-.7.6-5.191,0-2.287-.069-3.295-.439-3.913a2.151,2.151,0,0,0-2.05-.867,3,3,0,0,0-2.856,1.855c.045.454.067,1.5.067,2.266v.6c0,4.471.208,4.657.577,5.254l.208.35s-.6-.041-2.05-.041c-1.5,0-2.071.041-2.071.041l.208-.35c.368-.6.575-.763.575-5.191,0-2.287-.024-3.295-.415-3.913-.275-.454-.783-.867-2.026-.867a2.9,2.9,0,0,0-2.787,1.916v2.8c0,4.493.208,4.657.575,5.254l.208.35s-.575-.041-2.026-.041c-1.5,0-2.073.041-2.073.041l.208-.35c.37-.6.575-.763.575-5.254v-.659c0-3.565-.205-4.143-.575-4.739l-.208-.352,3.3-.515-.093,3.174a3.718,3.718,0,0,1,3.985-3.256,3.528,3.528,0,0,1,3.317,1.464,3.441,3.441,0,0,1,.461,1.382,3.757,3.757,0,0,1,3.961-2.863,3.64,3.64,0,0,1,3.386,1.483c.506.865.6,1.855.6,4.264v.618c0,4.493.184,4.657.553,5.254Z" transform="translate(-314.705 -713.242)" fill="#707070" />
			<path id="Caminho_238" data-name="Caminho 238" d="M464.371,724.5a16.112,16.112,0,0,1-2.6-.164c0,1.587.6,3.831,3.755,3.831,3.018,0,3.846-1.278,3.916-1.4,0,1.546-1.2,2.988-4.562,2.988-4.376,0-5.827-2.556-5.827-5.872,0-4.8,2.88-6.283,5.712-6.283,2.995,0,4.86,1.2,4.86,3.358C469.62,722.3,469.16,724.5,464.371,724.5Zm.32-5.583c-1.818,0-2.971,1.07-2.971,4.121a14.458,14.458,0,0,0,2.326.123c2.279,0,2.9-1.031,2.9-2.1C466.95,720.443,466.881,718.919,464.691,718.919Z" transform="translate(-395.106 -713.313)" fill="#707070" />
			<path id="Caminho_239" data-name="Caminho 239" d="M529.627,713.635l-3.271.515.138-3.174a3.688,3.688,0,0,1-4.009,3.256c-4.562,0-4.746-4.408-4.746-5.851,0-4.923,2.971-6.324,5.712-6.324a4.224,4.224,0,0,1,2.9.865c0-3.07-.253-3.727-.575-4.285l-.208-.35,3.386-.517s-.069,2.266-.069,4.367v6.406c0,3.565.162,4.143.53,4.739Zm-3.271-9.518a3.787,3.787,0,0,0-2.233-.618c-2.534,0-3.686,1.669-3.686,4.718,0,1.278.069,4.409,3.018,4.409a3.048,3.048,0,0,0,2.9-1.894Z" transform="translate(-441.107 -697.77)" fill="#707070" />
			<path id="Caminho_240" data-name="Caminho 240" d="M587.893,714.787c-1.5,0-2.073.041-2.073.041l.208-.35c.439-.72.575-1.133.575-5.254v-.659c0-3.565-.206-4.143-.575-4.739l-.208-.352,3.524-.515a41,41,0,0,0-.207,5.583v.681c0,3.812.093,4.43.575,5.254l.208.35S589.344,714.787,587.893,714.787Zm-.045-13.37c-.969,0-1.682-.391-1.682-1.278,0-.928.69-1.319,1.7-1.319.945,0,1.656.391,1.656,1.256C589.528,701.025,588.86,701.417,587.848,701.417Z" transform="translate(-494.467 -698.593)" fill="#707070" />
			<path id="Caminho_241" data-name="Caminho 241" d="M622.089,729.834c-3.57,0-5.689-2.184-5.689-5.81,0-2.2.785-6.324,6.151-6.324a6.367,6.367,0,0,1,3.641.8,11.918,11.918,0,0,0-.045,1.215c0,.824.045,1.628.045,1.628-1.222-1.792-2.05-2.246-3.5-2.246-1.959,0-3.548,1.092-3.548,4.7,0,2.411.945,4.43,3.71,4.43,2.625,0,3.546-1.4,3.546-1.4C626.4,728.247,625.2,729.834,622.089,729.834Z" transform="translate(-518.435 -713.391)" fill="#707070" />
			<path id="Caminho_242" data-name="Caminho 242" d="M674.823,714.787c-1.5,0-2.073.041-2.073.041l.208-.35c.439-.72.575-1.133.575-5.254v-.659c0-3.565-.205-4.143-.575-4.739l-.208-.352,3.524-.515a40.988,40.988,0,0,0-.208,5.583v.681c0,3.812.093,4.43.575,5.254l.208.35S676.274,714.787,674.823,714.787Zm-.045-13.37c-.969,0-1.682-.391-1.682-1.278,0-.928.69-1.319,1.7-1.319.945,0,1.656.391,1.656,1.256C676.458,701.025,675.79,701.417,674.778,701.417Z" transform="translate(-562.602 -698.593)" fill="#707070" />
			<path id="Caminho_243" data-name="Caminho 243" d="M717.008,729.542s-.6-.041-2.073-.041-2.05.041-2.05.041l.208-.35c.368-.6.6-.7.6-5.191,0-2.287-.045-3.295-.439-3.913-.275-.454-.806-.867-2.05-.867a2.963,2.963,0,0,0-2.856,1.916v2.8c0,4.493.208,4.657.575,5.254l.208.35s-.575-.041-2.026-.041c-1.5,0-2.073.041-2.073.041l.208-.35c.37-.6.575-.763.575-5.254v-.66c0-3.565-.205-4.143-.575-4.739l-.208-.352,3.317-.515-.138,3.174a3.765,3.765,0,0,1,4.054-3.256,3.631,3.631,0,0,1,3.364,1.464c.53.865.6,1.855.6,4.264v.618c0,4.493.208,4.657.577,5.254Z" transform="translate(-587.903 -713.305)" fill="#707070" />
			<path id="Caminho_244" data-name="Caminho 244" d="M783.826,729.1l-3.295.515.138-3.213a3.653,3.653,0,0,1-3.939,3.256c-4.607,0-4.7-4.575-4.7-5.831,0-4.923,2.971-6.3,5.643-6.3a4.279,4.279,0,0,1,3.271,1.07l2.35-1.092a46.078,46.078,0,0,0-.207,5.747v.763c0,3.565.162,4.143.53,4.739Zm-3.295-9.518a3.555,3.555,0,0,0-2.188-.618c-2.465,0-3.617,1.648-3.617,4.7,0,1.237.069,4.411,2.971,4.411a2.979,2.979,0,0,0,2.832-1.894v-6.594Z" transform="translate(-640.417 -713.234)" fill="#707070" />
		</g>
	</g>
</svg>
